<?xml version="1.0" encoding="UTF-8" standalone="no"?>
<!-- Created with Inkscape (http://www.inkscape.org/) -->

<svg
   version="1.1"
   id="svg1"
   width="1080"
   height="1080"
   viewBox="0 0 1080 1080"
   sodipodi:docname="Design sans titre(2).jpg"
   xmlns:inkscape="http://www.inkscape.org/namespaces/inkscape"
   xmlns:sodipodi="http://sodipodi.sourceforge.net/DTD/sodipodi-0.dtd"
   xmlns="http://www.w3.org/2000/svg"
   xmlns:svg="http://www.w3.org/2000/svg">
  <defs
     id="defs1" />
  <sodipodi:namedview
     id="namedview1"
     pagecolor="#ffffff"
     bordercolor="#000000"
     borderopacity="0.25"
     inkscape:showpageshadow="2"
     inkscape:pageopacity="0.0"
     inkscape:pagecheckerboard="0"
     inkscape:deskcolor="#d1d1d1">
    <inkscape:page
       x="0"
       y="0"
       width="1080"
       height="1080"
       id="page2"
       margin="0"
       bleed="0" />
  </sodipodi:namedview>
  <g
     inkscape:groupmode="layer"
     inkscape:label="Image"
     id="g1">
    <path
       style="fill:#000000"
       d="M 507.5,874.53302 C 465.19152,870.09283 427.81676,859.3905 391.5,841.31624 345.30207,818.32427 308.23131,788.35833 276.05881,748 238.05754,700.32984 213.66295,640.96047 205.79574,577 c -1.71064,-13.90749 -1.69948,-60.2283 0.0178,-74 3.66311,-29.37589 10.86544,-58.87006 20.51237,-84 21.87703,-56.98887 61.81526,-110.08118 110.17407,-146.46104 48.66372,-36.60924 102.01171,-58.2722 163,-66.18922 19.51086,-2.53275 61.34262,-2.54342 81,-0.0207 41.94819,5.38349 85.24964,19.24509 120,38.41425 83.29028,45.94499 141.67878,121.0215 165.03138,212.19903 23.28934,90.93053 7.1745,188.33051 -44.102,266.55765 -28.29555,43.16759 -64.6165,78.18514 -108.42936,104.53835 -13.24963,7.96959 -41.27723,21.62525 -55,26.79721 -21.6219,8.14905 -51.38381,15.38606 -77,18.72359 -17.06245,2.22306 -56.60486,2.74701 -73.5,0.9739 z M 570.11767,663.75 599.61819,600.5 604.5591,597.97296 C 607.27659,596.58309 635.9375,583.11425 668.25,568.0422 700.5625,552.97016 727,540.35117 727,540 c 0,-0.35117 -26.4375,-12.97016 -58.75,-28.0422 -32.3125,-15.07205 -60.97341,-28.54089 -63.6909,-29.93076 L 599.61819,479.5 570.11767,416.25 C 553.89238,381.4625 540.33676,353 539.99408,353 c -0.34269,0 -13.80034,28.2375 -29.9059,62.75 -16.10556,34.5125 -29.80154,63.25809 -30.43551,63.87908 C 478.62188,480.63877 456.22326,491.2215 377.25,528.01149 363.9125,534.22481 353,539.61964 353,540 c 0,0.38036 10.9125,5.77519 24.25,11.98851 78.97326,36.78999 101.37188,47.37272 102.40267,48.38241 0.63397,0.62099 14.32995,29.36658 30.43551,63.87908 16.10556,34.5125 29.56321,62.75 29.9059,62.75 0.34268,0 13.8983,-28.4625 30.12359,-63.25 z"
       id="path1" />
  </g>
</svg>
