<svg version="1.1" id="svg1" width="1080" height="1080" viewBox="0 0 1080 1080" sodipodi:docname="Design sans titre(2).jpg" xmlns:inkscape="http://www.inkscape.org/namespaces/inkscape" xmlns:sodipodi="http://sodipodi.sourceforge.net/DTD/sodipodi-0.dtd" xmlns="http://www.w3.org/2000/svg" xmlns:svg="http://www.w3.org/2000/svg">
  <defs id="defs1" fill="#57e4a7"/>
  <sodipodi:namedview id="namedview1" pagecolor="#ffffff" bordercolor="#57e4a7" borderopacity="0.25" inkscape:showpageshadow="2" inkscape:pageopacity="0.0" inkscape:pagecheckerboard="0" inkscape:deskcolor="#d1d1d1" fill="#57e4a7">
    <inkscape:page x="0" y="0" width="1080" height="1080" id="page2" margin="0" bleed="0" fill="#57e4a7"/>
  </sodipodi:namedview>
  <g inkscape:groupmode="layer" inkscape:label="Image" id="g1">
    <path style="fill:#57e4a7" d="M 0,540 V 0 h 540 540 v 540 540 H 540 0 Z m 581,333.55912 c 25.61619,-3.33753 55.3781,-10.57454 77,-18.72359 13.72277,-5.17196 41.75037,-18.82762 55,-26.79721 C 814.21268,767.1594 875.97937,657.99729 875.97937,540 c 0,-57.15802 -15.27961,-115.88411 -42.67526,-164.01933 C 800.96534,319.16019 757.45029,276.15851 700.5,244.74332 c -34.75036,-19.16916 -78.05181,-33.03076 -120,-38.41425 -19.65738,-2.52275 -61.48914,-2.51208 -81,0.0207 -99.70789,12.9433 -185.26079,65.85318 -239.61963,148.19188 -29.99489,45.43401 -47.06453,92.30435 -54.06681,148.45838 -1.7173,13.7717 -1.72846,60.09251 -0.0178,74 13.08574,106.38718 71.2174,196.91207 161.20426,251.03357 42.72421,25.69595 89.36891,41.13334 140.5,46.49945 16.89514,1.77311 56.43755,1.24916 73.5,-0.9739 z M 510.08818,664.25 C 493.98262,629.7375 480.28664,600.99191 479.65267,600.37092 478.62188,599.36123 456.22326,588.7785 377.25,551.98851 363.9125,545.77519 353,540.38036 353,540 c 0,-0.38036 10.9125,-5.77519 24.25,-11.98851 78.97326,-36.78999 101.37188,-47.37272 102.40267,-48.38241 0.63397,-0.62099 14.32995,-29.36658 30.43551,-63.87908 16.10556,-34.5125 29.56321,-62.75 29.9059,-62.75 0.34268,0 13.8983,28.4625 30.12359,63.25 l 29.50052,63.25 4.94091,2.52704 c 2.71749,1.38987 31.3784,14.85871 63.6909,29.93076 C 700.5625,527.02984 727,539.64883 727,540 c 0,0.35117 -26.4375,12.97016 -58.75,28.0422 -32.3125,15.07205 -60.97341,28.54089 -63.6909,29.93076 L 599.61819,600.5 570.11767,663.75 C 553.89238,698.5375 540.33676,727 539.99408,727 c -0.34269,0 -13.80034,-28.2375 -29.9059,-62.75 z" id="path1"/>
  </g>
</svg>