<?xml version="1.0" encoding="UTF-8" standalone="no"?>
<!-- Created with Inkscape (http://www.inkscape.org/) -->

<svg
   version="1.1"
   id="svg1"
   width="1080"
   height="1080"
   viewBox="0 0 1080 1080"
   sodipodi:docname="Design sans titre.jpg"
   xmlns:inkscape="http://www.inkscape.org/namespaces/inkscape"
   xmlns:sodipodi="http://sodipodi.sourceforge.net/DTD/sodipodi-0.dtd"
   xmlns="http://www.w3.org/2000/svg"
   xmlns:svg="http://www.w3.org/2000/svg">
  <defs
     id="defs1" />
  <sodipodi:namedview
     id="namedview1"
     pagecolor="#ffffff"
     bordercolor="#000000"
     borderopacity="0.25"
     inkscape:showpageshadow="2"
     inkscape:pageopacity="0.0"
     inkscape:pagecheckerboard="0"
     inkscape:deskcolor="#d1d1d1">
    <inkscape:page
       x="0"
       y="0"
       width="1080"
       height="1080"
       id="page2"
       margin="0"
       bleed="0" />
  </sodipodi:namedview>
  <g
     inkscape:groupmode="layer"
     inkscape:label="Image"
     id="g1">
    <path
       style="fill:#000000"
       d="m 605.58475,861.95385 c -22.9708,-3.58513 -47.89679,-16.51644 -62.30513,-32.32316 l -5.22037,-5.72704 -7.77963,7.84096 c -13.64943,13.75704 -30.3221,23.27168 -49.04231,27.98712 -5.00282,1.26016 -11.11388,1.70193 -23.73731,1.71595 -20.38522,0.0226 -27.67239,-1.5919 -45.13024,-9.99906 -32.24449,-15.52795 -52.71276,-44.99707 -56.39473,-81.19412 -1.86318,-18.31668 1.78867,-38.36042 9.74585,-53.49159 1.52221,-2.8946 2.93007,-5.6299 3.12857,-6.07845 0.1985,-0.44855 -2.94892,0.8516 -6.99427,2.88921 -14.94826,7.52933 -27.30872,10.53809 -43.35518,10.55343 -16.98339,0.0162 -27.59397,-2.62107 -44.21841,-10.99067 -29.13249,-14.6668 -50.65577,-43.2115 -56.22734,-74.57009 -1.51601,-8.53258 -1.29764,-26.90865 0.43804,-36.86176 3.72482,-21.35973 14.98672,-42.34638 31.23789,-58.21213 l 6.23019,-6.08242 -6.11801,-5.38529 C 237.37831,521.05343 225.81283,501.89221 220.8552,484 c -2.09959,-7.57751 -2.3474,-10.50778 -2.28337,-27 0.0664,-17.10831 0.27371,-19.1608 2.75549,-27.28408 8.905,-29.14748 26.97258,-50.88385 52.96483,-63.71982 23.4484,-11.57972 51.71178,-14.01249 74.38632,-6.40281 3.75305,1.25954 16.26638,6.85675 20.45312,9.14869 0.34737,0.19016 -1.33927,-3.61149 -3.74809,-8.44812 -6.69302,-13.43874 -9.59083,-25.94321 -9.68542,-41.79386 -0.0945,-15.83036 2.18993,-26.31015 8.75707,-40.1735 16.46123,-34.75 47.40475,-57.55839 83.06823,-61.22938 32.15735,-3.31009 64.5505,8.26886 87.2899,31.2018 l 7.31328,7.37552 6.68672,-6.93683 C 571.01063,225.71 600.33305,214.7902 631.5819,217.9142 c 13.35077,1.3347 23.20865,3.95883 34.18508,9.09992 32.75828,15.34319 54.47619,46.02389 58.2122,82.23588 1.9544,18.94334 -1.32524,36.60664 -9.98057,53.75275 -1.66507,3.29849 -2.80938,5.99725 -2.54291,5.99725 0.26646,0 3.08544,-1.30891 6.26439,-2.90868 15.95489,-8.02915 25.89962,-10.43685 43.27991,-10.47841 15.93081,-0.0381 26.44849,2.15798 39.39766,8.22616 29.18024,13.67432 50.35646,37.88561 59.17911,67.66093 3.54014,11.94753 4.46407,32.66648 2.0332,45.59404 -4.23622,22.52849 -14.09037,41.49264 -29.73903,57.23223 l -7.78105,7.82627 6.60611,6.17373 c 13.10464,12.24693 22.86333,28.43205 27.97763,46.40189 3.45108,12.1259 4.34703,34.12865 1.88456,46.28141 -7.60441,37.52931 -32.67943,66.43708 -68.05819,78.46099 -13.97997,4.75126 -37.09091,6.0721 -52.11925,2.97873 -7.59982,-1.56432 -22.52294,-7.08594 -27.09557,-10.02548 C 712.06703,711.64071 710.89405,711 710.67855,711 c -0.2155,0 1.58877,4.02705 4.00948,8.94899 6.60381,13.42729 9.45794,25.73486 9.51975,41.05101 0.0568,14.06795 -1.58268,22.95214 -6.45875,35 -9.07467,22.42181 -25.81755,41.82945 -46.44386,53.83576 C 655.49,859.04157 644.18815,862.15146 625,862.5774 c -7.425,0.16482 -16.16186,-0.11578 -19.41525,-0.62355 z M 553.5,643.42856 c 13.46968,-1.23121 31.77306,-7.88801 44.19243,-16.07245 8.27733,-5.4548 23.65321,-20.60285 28.85495,-28.42738 C 638.70459,580.64168 645,560.51921 645,539.94733 c 0,-28.95332 -10.86488,-54.70163 -31.68138,-75.08059 -10.16274,-9.94914 -16.49023,-14.45992 -27.96798,-19.93803 -28.37377,-13.54224 -62.45964,-13.51179 -90.84448,0.0812 -11.96379,5.72923 -19.44063,11.18885 -29.22529,21.34046 -14.08787,14.6162 -21.86208,28.2353 -26.99975,47.29897 -2.35197,8.72712 -2.65477,11.67567 -2.65477,25.8507 0,14.21768 0.2994,17.11395 2.68776,26 5.23487,19.47669 14.54103,35.25055 29.03406,49.21245 14.04827,13.53344 26.32087,20.64954 44.62717,25.87644 8.93137,2.55013 23.71707,4.4007 30.52466,3.82045 2.2,-0.18751 7.15,-0.62887 11,-0.98078 z M 525.51222,597.38587 C 499.7779,591.16476 480.03473,566.03473 480.03473,539.5 c 0,-21.7016 14.10059,-44.24242 33.46527,-53.49667 C 523.05147,481.43874 529.4024,480 540,480 c 10.59254,0 16.94475,1.43788 26.5,5.9985 11.05696,5.27737 21.01076,15.17496 26.53659,26.38674 9.05608,18.37458 9.0519,35.86361 -0.013,54.25572 -11.98937,24.32571 -40.45007,37.28681 -67.51139,30.74491 z"
       id="path1" />
  </g>
</svg>
