<?xml version="1.0" encoding="UTF-8" standalone="no"?>
<!-- Created with Inkscape (http://www.inkscape.org/) -->

<svg
   version="1.1"
   id="svg1"
   width="1080"
   height="1080"
   viewBox="0 0 1080 1080"
   sodipodi:docname="Design sans titre.jpg"
   xmlns:inkscape="http://www.inkscape.org/namespaces/inkscape"
   xmlns:sodipodi="http://sodipodi.sourceforge.net/DTD/sodipodi-0.dtd"
   xmlns="http://www.w3.org/2000/svg"
   xmlns:svg="http://www.w3.org/2000/svg">
  <defs
     id="defs1" />
  <sodipodi:namedview
     id="namedview1"
     pagecolor="#ffffff"
     bordercolor="#000000"
     borderopacity="0.25"
     inkscape:showpageshadow="2"
     inkscape:pageopacity="0.0"
     inkscape:pagecheckerboard="0"
     inkscape:deskcolor="#d1d1d1">
    <inkscape:page
       x="0"
       y="0"
       width="1080"
       height="1080"
       id="page2"
       margin="0"
       bleed="0" />
  </sodipodi:namedview>
  <g
     inkscape:groupmode="layer"
     inkscape:label="Image"
     id="g1">
    <path
       style="fill:#000000"
       d="M 0,540 V 0 h 540 540 v 540 540 H 540 0 Z m 646.6678,320.13856 c 9.89867,-2.59249 15.19972,-4.80927 24.63737,-10.3028 20.62631,-12.00631 37.36919,-31.41395 46.44386,-53.83576 4.87607,-12.04786 6.51552,-20.93205 6.45875,-35 -0.0618,-15.31615 -2.91594,-27.62372 -9.51975,-41.05101 C 712.26732,715.02705 710.46305,711 710.67855,711 c 0.2155,0 1.38848,0.64071 2.60663,1.42381 4.57263,2.93954 19.49575,8.46116 27.09557,10.02548 9.89161,2.03605 29.5185,2.11979 39.61925,0.16904 30.30707,-5.85317 55.91606,-24.94951 70.19081,-52.34052 9.38636,-18.01098 12.30842,-31.25231 11.52394,-52.22083 -0.64236,-17.16959 -3.00892,-26.91427 -10.03697,-41.32882 -5.38102,-11.03647 -12.02805,-20.0342 -20.98178,-28.40189 l -6.60611,-6.17373 7.78105,-7.82627 c 15.64866,-15.73959 25.50281,-34.70374 29.73903,-57.23223 2.43087,-12.92756 1.50694,-33.64651 -2.0332,-45.59404 -8.82265,-29.77532 -29.99887,-53.98661 -59.17911,-67.66093 -12.94917,-6.06818 -23.46685,-8.26426 -39.39766,-8.22616 -17.38029,0.0416 -27.32502,2.44926 -43.27991,10.47841 -3.17895,1.59977 -5.99793,2.90868 -6.26439,2.90868 -0.26647,0 0.87784,-2.69876 2.54291,-5.99725 8.65533,-17.14611 11.93497,-34.80941 9.98057,-53.75275 -2.4026,-23.28765 -11.21636,-42.66425 -27.18367,-59.76189 -24.08905,-25.79432 -60.70817,-37.23958 -95.84716,-29.95691 -19.929,4.13035 -37.3948,13.91481 -52.13507,29.20641 l -6.68672,6.93683 -7.31328,-7.37552 c -31.31111,-31.57761 -79.96142,-40.75167 -119.00232,-22.44042 -21.80076,10.22515 -40.29639,29.12133 -51.35581,52.468 -6.56714,13.86335 -8.85153,24.34314 -8.75707,40.1735 0.0946,15.85065 2.9924,28.35512 9.68542,41.79386 2.40882,4.83663 4.09546,8.63828 3.74809,8.44812 -4.18674,-2.29194 -16.70007,-7.88915 -20.45312,-9.14869 -22.67454,-7.60968 -50.93792,-5.17691 -74.38632,6.40281 -25.99225,12.83597 -44.05983,34.57234 -52.96483,63.71982 -2.48178,8.12328 -2.68907,10.17577 -2.75549,27.28408 -0.064,16.49222 0.18378,19.42249 2.28337,27 4.95763,17.89221 16.52311,37.05343 28.98716,48.02474 l 6.11801,5.38529 -6.23019,6.08242 c -16.25117,15.86575 -27.51307,36.8524 -31.23789,58.21213 -1.73568,9.95311 -1.95405,28.32918 -0.43804,36.86176 5.57157,31.35859 27.09485,59.90329 56.22734,74.57009 16.62444,8.3696 27.23502,11.00691 44.21841,10.99067 16.04646,-0.0153 28.40692,-3.0241 43.35518,-10.55343 4.04535,-2.03761 7.19277,-3.33776 6.99427,-2.88921 -0.1985,0.44855 -1.60636,3.18385 -3.12857,6.07845 -4.59233,8.73267 -8.51828,22.05501 -9.69845,32.91079 -4.64931,42.76674 17.72216,83.17423 56.34733,101.77492 17.45785,8.40716 24.74502,10.02171 45.13024,9.99906 12.62343,-0.014 18.73449,-0.45579 23.73731,-1.71595 18.72021,-4.71544 35.39288,-14.23008 49.04231,-27.98712 l 7.77963,-7.84096 5.22037,5.72704 c 14.40834,15.80672 39.33433,28.73803 62.30513,32.32316 10.08007,1.57324 31.81122,0.61302 41.08305,-1.81529 z M 529.5,643.88659 c -15.75862,-1.5123 -34.22563,-7.98592 -47.23347,-16.55772 -8.26325,-5.44525 -23.29477,-20.27712 -28.67087,-28.29006 -6.66123,-9.9284 -12.20707,-22.1 -15.28155,-33.53881 -2.38836,-8.88605 -2.68776,-11.78232 -2.68776,-26 0,-14.17503 0.3028,-17.12358 2.65477,-25.8507 5.13767,-19.06367 12.91188,-32.68277 26.99975,-47.29897 9.78466,-10.15161 17.2615,-15.61123 29.22529,-21.34046 28.38484,-13.59295 62.47071,-13.6234 90.84448,-0.0812 11.47775,5.47811 17.80524,9.98889 27.96798,19.93803 20.8165,20.379 31.68138,46.12731 31.68138,75.08063 0,28.27133 -11.31749,54.5031 -32.19141,74.61347 -14.1296,13.61276 -26.06806,20.62614 -43.9082,25.79436 -7.48689,2.16892 -11.48468,2.78284 -26.40039,4.05418 -2.2,0.18752 -8.05,-0.0477 -13,-0.52275 z m 24.48483,-46.44455 c 17.05451,-4.01953 31.42861,-15.36051 39.03878,-30.80108 9.06488,-18.39211 9.06906,-35.88114 0.013,-54.25572 C 587.51076,501.17346 577.55696,491.27587 566.5,485.9985 556.94475,481.43788 550.59254,480 540,480 c -10.5976,0 -16.94853,1.43874 -26.5,6.00333 -19.36468,9.25425 -33.46527,31.79507 -33.46527,53.49667 0,26.53473 19.74317,51.66476 45.47749,57.88587 7.94249,1.92004 20.45961,1.94474 28.47261,0.0562 z"
       id="path1" />
  </g>
</svg>
