<?xml version="1.0" encoding="UTF-8" standalone="no"?>
<!-- Created with Inkscape (http://www.inkscape.org/) -->

<svg
   version="1.1"
   id="svg1"
   width="1080"
   height="1080"
   viewBox="0 0 1080 1080"
   sodipodi:docname="Design sans titre(1).jpg"
   xmlns:inkscape="http://www.inkscape.org/namespaces/inkscape"
   xmlns:sodipodi="http://sodipodi.sourceforge.net/DTD/sodipodi-0.dtd"
   xmlns="http://www.w3.org/2000/svg"
   xmlns:svg="http://www.w3.org/2000/svg">
  <defs
     id="defs1" />
  <sodipodi:namedview
     id="namedview1"
     pagecolor="#ffffff"
     bordercolor="#000000"
     borderopacity="0.25"
     inkscape:showpageshadow="2"
     inkscape:pageopacity="0.0"
     inkscape:pagecheckerboard="0"
     inkscape:deskcolor="#d1d1d1">
    <inkscape:page
       x="0"
       y="0"
       width="1080"
       height="1080"
       id="page2"
       margin="0"
       bleed="0" />
  </sodipodi:namedview>
  <g
     inkscape:groupmode="layer"
     inkscape:label="Image"
     id="g1">
    <path
       style="fill:#000000"
       d="m 515,850.94478 c -17.875,-10.4435 -36.21103,-21.11591 -40.74674,-23.71648 l -8.24673,-4.7283 0.008,-48.5 0.008,-48.5 10.73864,-6.15253 c 5.90625,-3.3839 24.40031,-14.0714 41.09792,-23.75 C 534.55688,685.91886 548.40426,678 548.63122,678 c 0.22697,0 13.7903,7.78481 30.14073,17.29959 16.35043,9.51477 34.78287,20.20227 40.96098,23.75 l 11.23292,6.45041 -0.0108,48.5 -0.0108,48.5 -12.22212,7.08375 c -6.72217,3.89606 -25.09909,14.58356 -40.83761,23.75 -15.73852,9.16644 -29.01352,16.65116 -29.5,16.63272 C 547.89803,869.94804 532.875,861.38827 515,850.94478 Z M 665.02574,624.50581 c -8.59403,-1.95354 -21.31734,-8.23936 -27.61142,-13.64113 -13.45621,-11.54853 -23.16626,-29.85514 -23.5104,-44.32478 -0.0763,-3.20787 -0.47187,-2.23512 -1.92069,4.72321 -4.91378,23.59964 -21.35942,42.64211 -43.52136,50.39355 -7.00281,2.44933 -9.40735,2.78477 -19.96187,2.78477 -10.55452,0 -12.95906,-0.33544 -19.96187,-2.78477 -22.07448,-7.72085 -38.62529,-26.86587 -43.50848,-50.32809 -1.55301,-7.46176 -1.85236,-8.15919 -1.93357,-4.50489 -0.12041,5.41852 -4.26894,17.94487 -8.338,25.17632 -1.70214,3.025 -6.78055,9.16891 -11.28535,13.65313 -6.48847,6.45882 -9.93433,8.98992 -16.58165,12.17981 -4.61509,2.21468 -11.20045,4.5662 -14.63413,5.22561 -9.07367,1.74252 -26.17442,0.71125 -34.03248,-2.05236 -8.80401,-3.09628 -19.69889,-10.50896 -26.56308,-18.07302 -9.03909,-9.96071 -16.43012,-26.82931 -16.75164,-38.23239 -0.0535,-1.89648 -0.61829,-0.29135 -1.38608,3.93902 -1.72175,9.48657 -3.08991,13.55641 -7.25727,21.58806 -6.03305,11.62735 -19.82215,24.7144 -31.06909,29.48725 -41.62083,17.66258 -87.38738,-11.71128 -89.9242,-57.71511 -0.90652,-16.43921 2.34715,-47.28975 7.38259,-70 19.24233,-86.78459 72.64462,-162.89634 147.8443,-210.71547 79.00181,-50.23688 176.69504,-62.74684 263.96263,-33.80134 51.90134,17.21498 95.17618,44.43504 133.1183,83.73195 54.89106,56.85104 86.60717,126.58438 93.36762,205.28486 2.20175,25.63121 0.89708,37.97549 -5.41941,51.27621 -8.07071,16.99463 -21.81361,29.28545 -39.02914,34.9053 -11.12882,3.63291 -26.76798,3.83067 -37,0.46787 -10.90373,-3.58355 -19.29045,-8.74231 -27,-16.60798 -10.94628,-11.16795 -17.19915,-23.63975 -19.32658,-38.54824 -0.67437,-4.72587 -0.96016,-5.48589 -1.04999,-2.79238 -0.23054,6.91219 -2.31036,14.27623 -6.63937,23.50808 -7.57449,16.153 -23.29369,29.63685 -40.48406,34.72703 -7.93641,2.35002 -22.11622,2.85616 -29.97426,1.06992 z"
       id="path1" />
  </g>
</svg>
