<svg version="1.1" id="svg1" width="1080" height="1080" viewBox="0 0 1080 1080" sodipodi:docname="Design sans titre(1).jpg" xmlns:inkscape="http://www.inkscape.org/namespaces/inkscape" xmlns:sodipodi="http://sodipodi.sourceforge.net/DTD/sodipodi-0.dtd" xmlns="http://www.w3.org/2000/svg" xmlns:svg="http://www.w3.org/2000/svg">
  <defs id="defs1" fill="#ff487f"/>
  <sodipodi:namedview id="namedview1" pagecolor="#ffffff" bordercolor="#ff487f" borderopacity="0.25" inkscape:showpageshadow="2" inkscape:pageopacity="0.0" inkscape:pagecheckerboard="0" inkscape:deskcolor="#d1d1d1" fill="#ff487f">
    <inkscape:page x="0" y="0" width="1080" height="1080" id="page2" margin="0" bleed="0" fill="#ff487f"/>
  </sodipodi:namedview>
  <g inkscape:groupmode="layer" inkscape:label="Image" id="g1">
    <path style="fill:#ff487f" d="M 0,540 V 0 h 540 540 v 540 540 H 540 0 Z m 577.88451,313.33375 c 15.73852,-9.16644 34.11544,-19.85394 40.83761,-23.75 l 12.22212,-7.08375 0.0108,-48.5 0.0108,-48.5 -11.23292,-6.45041 c -6.17811,-3.54773 -24.61055,-14.23523 -40.96098,-23.75 C 562.42152,685.78481 548.85819,678 548.63122,678 c -0.22696,0 -14.07434,7.91886 -30.77194,17.59747 -16.69761,9.6786 -35.19167,20.3661 -41.09792,23.75 l -10.73864,6.15253 -0.008,48.5 -0.008,48.5 8.24673,4.7283 c 4.53571,2.60057 22.87174,13.27298 40.74674,23.71648 17.875,10.44349 32.89803,19.00326 33.38451,19.02169 0.48648,0.0184 13.76148,-7.46628 29.5,-16.63272 z M 695,623.43589 c 10.57281,-3.13068 19.02041,-8.34207 27.83292,-17.17035 6.98624,-6.99875 9.03077,-9.83605 12.65114,-17.55668 4.32901,-9.23185 6.40883,-16.59589 6.63937,-23.50808 0.0898,-2.69351 0.37562,-1.93349 1.04999,2.79238 2.12743,14.90849 8.3803,27.38029 19.32658,38.54824 7.70955,7.86567 16.09627,13.02443 27,16.60798 10.23202,3.3628 25.87118,3.16504 37,-0.46787 17.21553,-5.61985 30.95843,-17.91067 39.02914,-34.9053 6.31649,-13.30072 7.62116,-25.645 5.41941,-51.27621 C 864.1881,457.79952 832.47199,388.06618 777.58093,331.21514 716.35829,267.80643 633.74204,232.03952 548.5,232.03952 c -45.03799,0 -93.397,10.98773 -133.83076,30.40791 -36.19956,17.38652 -66.85382,39.5235 -95.29443,68.81689 C 275.92524,376.01671 246.12507,431.25195 232.6557,492 c -5.03544,22.71025 -8.28911,53.56079 -7.38259,70 2.53682,46.00383 48.30337,75.37769 89.9242,57.71511 11.24694,-4.77285 25.03604,-17.8599 31.06909,-29.48725 4.16736,-8.03165 5.53552,-12.10149 7.25727,-21.58806 0.76779,-4.23037 1.33261,-5.8355 1.38608,-3.93902 0.32152,11.40308 7.71255,28.27168 16.75164,38.23239 6.86419,7.56406 17.75907,14.97674 26.56308,18.07302 7.85806,2.76361 24.95881,3.79488 34.03248,2.05236 3.43368,-0.65941 10.01904,-3.01093 14.63413,-5.22561 6.64732,-3.18989 10.09318,-5.72099 16.58165,-12.17981 4.5048,-4.48422 9.58321,-10.62813 11.28535,-13.65313 4.06906,-7.23145 8.21759,-19.7578 8.338,-25.17632 0.0812,-3.6543 0.38056,-2.95687 1.93357,4.50489 4.88319,23.46222 21.434,42.60724 43.50848,50.32809 7.00281,2.44933 9.40735,2.78477 19.96187,2.78477 10.55452,0 12.95906,-0.33544 19.96187,-2.78477 22.16194,-7.75144 38.60758,-26.79391 43.52136,-50.39355 1.44882,-6.95833 1.84439,-7.93108 1.92069,-4.72321 0.34414,14.46964 10.05419,32.77625 23.5104,44.32478 6.29408,5.40177 19.01739,11.68759 27.61142,13.64113 7.85804,1.78624 22.03785,1.2801 29.97426,-1.06992 z" id="path1"/>
  </g>
</svg>